
<svg class = "screenTitle"id="svg" version="1.1" xmlns="http://www.w3.org/2000/svg" xmlns:xlink="http://www.w3.org/1999/xlink" width="400" height="184.3478260869565" viewBox="0, 0, 400,184.3478260869565"><g id="svgg"><path id="path0" d="M117.108 21.169 C 116.869 21.361,116.635 21.839,116.542 22.321 C 116.337 23.384,116.333 145.891,116.538 146.952 C 116.820 148.411,116.573 148.357,123.140 148.417 C 130.753 148.487,130.270 148.720,130.950 144.651 C 131.689 140.235,131.848 140.173,134.690 143.201 C 138.673 147.445,142.464 149.198,148.302 149.498 C 160.303 150.113,167.317 141.607,169.412 123.900 C 170.125 117.874,169.960 82.018,169.188 75.242 C 167.269 58.405,160.006 49.931,148.322 50.897 C 143.695 51.280,140.091 52.909,136.324 56.321 C 134.014 58.413,133.797 58.175,133.959 53.724 C 134.131 48.988,134.306 23.102,134.171 22.382 C 134.102 22.018,133.848 21.522,133.606 21.280 L 133.166 20.839 125.340 20.839 C 118.101 20.839,117.484 20.864,117.108 21.169 M332.135 26.975 C 331.352 27.378,331.251 27.872,329.632 39.188 C 328.767 45.237,327.984 50.384,327.892 50.626 C 327.525 51.591,327.005 51.721,323.137 51.821 C 318.403 51.943,318.857 51.286,318.857 58.032 C 318.857 64.735,318.542 64.206,322.607 64.354 C 325.324 64.453,325.347 64.457,325.789 64.971 L 326.233 65.489 326.236 95.031 C 326.237 112.030,326.315 125.905,326.419 127.709 C 326.935 136.656,329.159 142.489,333.385 145.975 C 339.973 151.409,353.390 150.563,358.965 144.362 C 360.053 143.151,360.219 142.281,360.138 138.217 C 360.054 134.043,359.919 133.848,357.659 134.634 C 350.205 137.225,345.840 135.736,344.384 130.106 C 343.977 128.533,343.731 67.104,344.126 65.638 C 344.462 64.390,344.633 64.361,351.853 64.361 C 358.482 64.361,358.852 64.318,359.224 63.503 C 359.509 62.877,359.505 53.297,359.219 52.670 C 358.884 51.935,358.742 51.919,351.733 51.822 L 345.052 51.729 344.541 51.218 L 344.030 50.707 343.937 39.099 C 343.851 28.276,343.823 27.469,343.516 27.162 C 343.085 26.731,332.933 26.564,332.135 26.975 M63.681 28.768 C 62.744 29.151,62.956 28.240,59.753 45.643 C 58.932 50.106,57.853 55.957,57.356 58.645 C 56.859 61.332,55.994 66.021,55.434 69.064 C 54.874 72.107,53.496 79.576,52.373 85.662 C 51.250 91.747,49.749 99.880,49.038 103.734 C 48.328 107.589,47.339 112.941,46.841 115.629 C 40.640 149.119,40.971 147.178,41.363 147.777 C 41.812 148.463,42.044 148.479,50.649 148.418 C 57.996 148.366,58.443 148.344,58.811 148.011 C 59.357 147.516,59.413 147.236,60.676 138.589 C 62.246 127.849,62.222 127.975,62.796 127.478 L 63.276 127.063 73.302 127.063 L 83.328 127.063 83.874 127.523 C 84.528 128.073,84.398 127.426,86.132 138.771 C 87.465 147.494,87.576 147.947,88.449 148.279 C 89.189 148.560,104.365 148.504,104.930 148.218 C 105.889 147.733,105.720 146.622,100.416 118.488 C 100.072 116.662,99.159 111.724,98.387 107.515 C 97.616 103.306,96.703 98.368,96.359 96.542 C 96.016 94.716,95.186 90.235,94.516 86.584 C 93.847 82.932,92.850 77.538,92.303 74.597 C 91.755 71.655,90.840 66.717,90.269 63.624 C 89.699 60.530,88.786 55.592,88.240 52.651 C 87.695 49.710,86.662 44.108,85.944 40.203 C 84.085 30.085,83.997 29.694,83.445 29.143 L 82.979 28.677 73.532 28.640 C 68.286 28.619,63.905 28.676,63.681 28.768 M205.013 51.006 C 192.167 52.761,185.674 62.030,183.643 81.512 C 183.312 84.683,183.314 112.116,183.645 116.090 C 185.708 140.840,194.464 150.860,212.753 149.399 C 227.359 148.232,235.157 136.679,236.603 114.065 C 236.846 110.256,236.845 91.626,236.601 86.491 C 235.290 58.938,225.711 48.177,205.013 51.006 M253.310 52.252 C 252.616 52.946,252.623 52.508,252.697 92.301 C 252.774 133.204,252.731 131.461,253.784 135.731 C 256.008 144.751,261.808 149.562,270.458 149.562 C 277.798 149.562,283.498 146.712,288.835 140.373 C 290.186 138.768,290.573 139.291,291.370 143.798 C 292.262 148.838,291.647 148.456,298.847 148.456 C 304.600 148.456,305.119 148.388,305.510 147.586 C 305.695 147.208,305.844 55.664,305.663 53.870 C 305.572 52.975,305.438 52.586,305.103 52.251 L 304.662 51.810 296.736 51.862 C 287.830 51.920,288.333 51.835,288.046 53.324 C 287.960 53.766,287.887 71.163,287.883 91.985 C 287.873 135.205,288.091 130.340,286.079 132.258 C 280.762 137.328,273.539 136.906,271.481 131.406 C 270.511 128.815,270.540 130.042,270.531 90.663 C 270.527 70.568,270.454 53.766,270.368 53.324 C 270.081 51.835,270.584 51.920,261.678 51.862 L 253.752 51.810 253.310 52.252 M73.852 55.741 C 74.264 56.726,81.880 109.810,81.881 111.697 C 81.881 113.259,82.031 113.232,73.419 113.229 C 65.382 113.226,65.168 113.203,64.847 112.292 C 64.698 111.867,71.045 66.107,72.313 58.463 C 72.839 55.293,73.314 54.453,73.852 55.741 M145.775 64.117 C 149.037 65.261,150.610 67.988,151.541 74.111 C 151.977 76.978,152.045 121.782,151.618 124.942 C 150.556 132.810,147.755 136.015,142.218 135.695 C 139.691 135.548,137.381 134.103,135.687 131.609 C 134.117 129.297,134.255 132.402,134.255 99.520 L 134.255 70.322 134.811 69.210 C 136.910 65.010,141.821 62.729,145.775 64.117 M213.273 64.358 C 216.557 65.952,218.092 70.215,218.756 79.576 C 219.092 84.300,219.091 117.236,218.755 120.977 C 217.715 132.584,214.949 136.774,209.009 135.740 C 204.642 134.979,202.745 131.694,201.617 122.937 C 201.167 119.437,201.050 82.649,201.475 78.136 C 202.306 69.312,204.050 65.511,207.893 64.141 C 209.306 63.638,212.016 63.747,213.273 64.358 " stroke="none" fill="#f3f3eb" fill-rule="evenodd"></path><path id="path1" d="M5.809 0.861 C 4.976 1.045,4.426 1.355,4.112 1.817 C 3.562 2.627,3.599 179.195,4.149 179.812 C 4.352 180.040,4.785 180.339,5.112 180.477 C 6.149 180.916,395.432 180.845,396.312 180.405 C 397.715 179.704,397.592 188.686,397.549 90.456 L 397.510 2.674 397.132 2.029 C 396.924 1.674,396.509 1.259,396.210 1.107 C 395.691 0.842,7.002 0.598,5.809 0.861 M133.606 21.280 C 133.848 21.522,134.102 22.018,134.171 22.382 C 134.306 23.102,134.131 48.988,133.959 53.724 C 133.797 58.175,134.014 58.413,136.324 56.321 C 140.091 52.909,143.695 51.280,148.322 50.897 C 160.006 49.931,167.269 58.405,169.188 75.242 C 169.960 82.018,170.125 117.874,169.412 123.900 C 167.317 141.607,160.303 150.113,148.302 149.498 C 142.464 149.198,138.673 147.445,134.690 143.201 C 131.848 140.173,131.689 140.235,130.950 144.651 C 130.270 148.720,130.753 148.487,123.140 148.417 C 116.573 148.357,116.820 148.411,116.538 146.952 C 116.333 145.891,116.337 23.384,116.542 22.321 C 116.840 20.775,116.462 20.839,125.340 20.839 L 133.166 20.839 133.606 21.280 M343.516 27.162 C 343.823 27.469,343.851 28.276,343.937 39.099 L 344.030 50.707 344.541 51.218 L 345.052 51.729 351.733 51.822 C 358.742 51.919,358.884 51.935,359.219 52.670 C 359.505 53.297,359.509 62.877,359.224 63.503 C 358.852 64.318,358.482 64.361,351.853 64.361 C 344.633 64.361,344.462 64.390,344.126 65.638 C 343.731 67.104,343.977 128.533,344.384 130.106 C 345.840 135.736,350.205 137.225,357.659 134.634 C 359.919 133.848,360.054 134.043,360.138 138.217 C 360.219 142.281,360.053 143.151,358.965 144.362 C 353.390 150.563,339.973 151.409,333.385 145.975 C 329.159 142.489,326.935 136.656,326.419 127.709 C 326.315 125.905,326.237 112.030,326.236 95.031 L 326.233 65.489 325.789 64.971 C 325.347 64.457,325.324 64.453,322.607 64.354 C 318.542 64.206,318.857 64.735,318.857 58.032 C 318.857 51.286,318.403 51.943,323.137 51.821 C 327.005 51.721,327.525 51.591,327.892 50.626 C 327.984 50.384,328.767 45.237,329.632 39.188 C 331.251 27.872,331.352 27.378,332.135 26.975 C 332.933 26.564,343.085 26.731,343.516 27.162 M83.445 29.143 C 83.997 29.694,84.085 30.085,85.944 40.203 C 86.662 44.108,87.695 49.710,88.240 52.651 C 88.786 55.592,89.699 60.530,90.269 63.624 C 90.840 66.717,91.755 71.655,92.303 74.597 C 92.850 77.538,93.847 82.932,94.516 86.584 C 95.186 90.235,96.016 94.716,96.359 96.542 C 96.703 98.368,97.616 103.306,98.387 107.515 C 99.159 111.724,100.072 116.662,100.416 118.488 C 105.720 146.622,105.889 147.733,104.930 148.218 C 104.365 148.504,89.189 148.560,88.449 148.279 C 87.576 147.947,87.465 147.494,86.132 138.771 C 84.398 127.426,84.528 128.073,83.874 127.523 L 83.328 127.063 73.302 127.063 L 63.276 127.063 62.796 127.478 C 62.222 127.975,62.246 127.849,60.676 138.589 C 59.413 147.236,59.357 147.516,58.811 148.011 C 58.443 148.344,57.996 148.366,50.649 148.418 C 42.044 148.479,41.812 148.463,41.363 147.777 C 40.971 147.178,40.640 149.119,46.841 115.629 C 47.339 112.941,48.328 107.589,49.038 103.734 C 49.749 99.880,51.250 91.747,52.373 85.662 C 53.496 79.576,54.874 72.107,55.434 69.064 C 55.994 66.021,56.859 61.332,57.356 58.645 C 57.853 55.957,58.932 50.106,59.753 45.643 C 62.956 28.240,62.744 29.151,63.681 28.768 C 63.905 28.676,68.286 28.619,73.532 28.640 L 82.979 28.677 83.445 29.143 M215.860 50.994 C 229.158 52.995,235.526 63.894,236.601 86.491 C 236.845 91.626,236.846 110.256,236.603 114.065 C 235.157 136.679,227.359 148.232,212.753 149.399 C 194.464 150.860,185.708 140.840,183.645 116.090 C 183.314 112.116,183.312 84.683,183.643 81.512 C 185.514 63.564,191.212 54.292,202.062 51.542 C 205.265 50.730,212.260 50.453,215.860 50.994 M269.909 52.218 C 270.497 52.807,270.523 54.423,270.531 90.663 C 270.540 130.042,270.511 128.815,271.481 131.406 C 273.539 136.906,280.762 137.328,286.079 132.258 C 288.091 130.340,287.873 135.205,287.883 91.985 C 287.887 71.163,287.960 53.766,288.046 53.324 C 288.333 51.835,287.830 51.920,296.736 51.862 L 304.662 51.810 305.103 52.251 C 305.438 52.586,305.572 52.975,305.663 53.870 C 305.844 55.664,305.695 147.208,305.510 147.586 C 305.119 148.388,304.600 148.456,298.847 148.456 C 291.647 148.456,292.262 148.838,291.370 143.798 C 290.573 139.291,290.186 138.768,288.835 140.373 C 283.498 146.712,277.798 149.562,270.458 149.562 C 261.808 149.562,256.008 144.751,253.784 135.731 C 252.731 131.461,252.774 133.204,252.697 92.301 C 252.623 52.508,252.616 52.946,253.310 52.252 L 253.752 51.810 261.678 51.862 C 268.759 51.908,269.637 51.946,269.909 52.218 M72.959 55.651 C 72.406 56.720,64.563 111.484,64.847 112.292 C 65.168 113.203,65.382 113.226,73.419 113.229 C 82.031 113.232,81.881 113.259,81.881 111.697 C 81.881 110.986,74.748 59.932,74.302 57.447 C 73.917 55.307,73.456 54.690,72.959 55.651 M141.989 63.816 C 139.045 64.260,136.226 66.378,134.811 69.210 L 134.255 70.322 134.255 99.520 C 134.255 132.402,134.117 129.297,135.687 131.609 C 137.381 134.103,139.691 135.548,142.218 135.695 C 147.755 136.015,150.556 132.810,151.618 124.942 C 152.045 121.782,151.977 76.978,151.541 74.111 C 150.339 66.206,147.370 63.005,141.989 63.816 M207.893 64.141 C 204.050 65.511,202.306 69.312,201.475 78.136 C 201.050 82.649,201.167 119.437,201.617 122.937 C 202.745 131.694,204.642 134.979,209.009 135.740 C 214.949 136.774,217.715 132.584,218.755 120.977 C 219.091 117.236,219.092 84.300,218.756 79.576 C 218.092 70.215,216.557 65.952,213.273 64.358 C 212.016 63.747,209.306 63.638,207.893 64.141 " stroke="none" fill="#4c4444" fill-rule="evenodd"></path></g></svg>
