
<svg class = "screenTitle" xmlns="http://www.w3.org/2000/svg" viewBox="0 0 540 257"  height="257">
	<style>
		tspan { white-space:pre }
		.shp0 { fill: #292929 } 
	</style>
	<path id="Shape 1" class="shp0" d="M7 10L534 10L534 246L7 246L7 10Z" />
	<path id="About " fill="#f2f3eb" d="M53.02 205.42L78.06 205.42L82.35 176.29L112.05 176.29L116.53 205.42L141.47 205.42L111.39 42.79L83.01 42.79ZM85.2 157.72L96.72 76.69L97.77 76.69L109.2 157.72ZM155.66 205.42L174.51 205.42L176.51 193.23C180.8 200.19 187.65 206.95 199.94 206.95C208.79 206.95 228.12 204.09 228.12 159.62L228.12 119.92C228.12 75.36 208.89 72.88 200.89 72.88C190.42 72.88 183.46 78.5 179.08 84.59L178.99 84.5L179.75 67.17L179.75 32.23L155.66 32.23ZM179.75 178.86L179.75 99.26C182.13 94.5 185.94 90.4 191.84 90.4C198.89 90.4 203.84 94.69 203.84 114.21L203.84 164.38C203.84 183.9 198.79 188.28 191.75 188.28C185.37 188.28 181.85 183.71 179.75 178.86ZM282.87 206.85C298.01 206.85 318.96 200.09 318.96 149.15L318.96 128.58C318.96 76.98 298.67 72.79 282.96 72.79C266.68 72.79 246.4 77.64 246.4 128.58L246.4 149.15C246.4 200.95 266.11 206.85 282.87 206.85ZM283.06 188.28C274.01 188.28 270.59 180.19 270.59 155.62L270.59 123.35C270.59 98.78 274.01 90.4 283.06 90.4C291.72 90.4 294.77 98.78 294.77 123.35L294.77 155.62C294.77 180.19 291.72 188.28 283.06 188.28ZM340.47 174.76C340.47 196.19 349.23 206.95 364.47 206.95C374.08 206.95 383.99 203.33 391.51 191.43L391.6 191.43L393.98 205.42L412.36 205.42L412.36 74.31L388.27 74.31L388.27 180.57C384.65 185.52 379.8 188.28 375.04 188.28C368.18 188.28 364.56 184.38 364.56 172.86L364.56 74.31L340.47 74.31ZM440.26 172.76C440.26 201.23 452.73 206.95 466.16 206.95C472.92 206.95 480.63 205.14 486.15 198.38L486.15 185.05C482.92 187.05 479.39 188.28 474.73 188.28C469.11 188.28 464.35 186.28 464.35 174.86L464.35 91.45L485.3 91.45L485.3 74.31L464.35 74.31L464.35 40.32L447.21 40.32L442.35 74.31L430.07 74.31L430.07 91.45L440.26 91.45Z" />
</svg>