
<svg id="svg" version="1.1" xmlns="http://www.w3.org/2000/svg" xmlns:xlink="http://www.w3.org/1999/xlink" width="40vh" height="40vh" viewBox="0, 0, 400,193.44632768361583"><g id="svgg"><path id="path0" d="M183.454 32.014 C 179.253 33.183,177.228 37.818,178.521 43.303 C 180.277 50.751,190.699 51.904,193.926 45.008 C 195.966 40.647,194.519 34.360,191.093 32.702 C 189.135 31.754,185.549 31.431,183.454 32.014 M312.409 40.772 C 311.255 40.998,311.212 41.163,309.905 50.207 C 308.322 61.166,308.871 60.040,305.039 60.189 C 301.352 60.333,301.500 60.123,301.500 65.235 C 301.500 70.002,301.525 70.053,303.862 70.054 C 305.620 70.056,306.648 70.331,306.964 70.884 C 307.156 71.219,307.232 76.774,307.319 96.662 C 307.439 124.372,307.382 123.010,308.582 126.947 C 310.670 133.798,316.109 137.202,323.746 136.439 C 327.247 136.089,329.796 135.077,332.139 133.106 C 333.465 131.992,333.624 131.481,333.624 128.337 C 333.624 124.400,333.606 124.380,330.781 125.113 C 326.062 126.339,323.448 125.730,322.121 123.094 C 321.236 121.336,321.239 121.424,321.239 95.622 L 321.239 71.088 321.737 70.619 C 322.233 70.153,322.272 70.149,327.248 70.053 C 333.659 69.929,333.116 70.324,333.204 65.724 C 333.313 59.969,333.559 60.184,326.878 60.184 C 322.610 60.184,322.213 60.155,321.792 59.814 L 321.335 59.444 321.239 50.670 C 321.133 41.095,321.151 41.235,320.004 40.836 C 319.471 40.650,313.296 40.598,312.409 40.772 M31.793 42.471 C 31.557 42.640,31.275 43.103,31.165 43.499 C 30.859 44.601,30.908 133.595,31.216 134.489 C 31.603 135.617,31.800 135.650,38.257 135.653 L 44.100 135.656 44.643 135.189 L 45.186 134.722 45.283 121.497 C 45.336 114.224,45.451 108.128,45.539 107.952 C 45.800 107.426,46.599 107.245,49.250 107.115 C 65.980 106.296,74.117 95.371,74.117 73.730 C 74.117 54.255,67.925 45.047,53.217 42.654 C 50.198 42.163,32.433 42.011,31.793 42.471 M51.379 53.113 C 56.140 54.381,58.551 57.810,59.216 64.261 C 59.570 67.695,59.376 82.731,58.947 85.148 C 57.592 92.777,53.761 96.557,47.377 96.564 C 45.056 96.566,45.283 98.946,45.283 74.566 L 45.283 53.587 45.785 53.085 C 46.372 52.498,49.120 52.512,51.379 53.113 M104.330 59.702 C 101.912 60.383,99.037 62.461,97.146 64.895 C 95.644 66.828,95.087 66.481,94.533 63.267 C 94.005 60.202,93.846 60.122,88.489 60.217 L 84.920 60.281 84.453 60.824 L 83.986 61.367 83.986 97.915 C 83.986 118.016,84.041 134.604,84.107 134.776 C 84.553 135.939,96.392 136.155,97.578 135.022 C 97.603 134.998,97.668 121.219,97.723 104.403 C 97.834 70.309,97.702 73.260,99.191 71.612 C 101.346 69.227,104.279 69.075,105.641 71.279 C 106.382 72.479,106.633 74.170,106.761 78.834 C 106.877 83.061,106.902 83.284,107.319 83.769 L 107.756 84.277 111.755 84.277 L 115.755 84.277 116.299 83.668 C 118.139 81.608,118.793 72.323,117.447 67.351 C 115.878 61.551,109.980 58.112,104.330 59.702 M141.558 59.693 C 132.162 61.179,127.292 67.875,125.456 81.832 C 124.951 85.668,124.955 107.901,125.461 112.396 C 127.054 126.537,131.332 133.538,139.816 135.887 C 141.981 136.486,149.117 136.538,151.217 135.969 C 163.876 132.544,168.353 118.271,166.613 86.889 C 165.428 65.528,157.701 57.140,141.558 59.693 M222.576 59.699 C 213.103 61.509,207.681 68.712,205.968 81.761 C 205.455 85.664,205.457 108.587,205.970 113.208 C 207.577 127.686,212.948 135.113,222.640 136.256 C 237.116 137.963,245.410 130.860,245.603 116.590 C 245.652 112.966,245.729 113.014,239.865 113.014 C 234.077 113.014,234.327 112.848,233.979 116.940 C 233.427 123.431,230.608 126.475,225.959 125.598 C 220.914 124.646,219.077 118.703,219.495 104.693 C 219.629 100.194,218.279 100.629,232.124 100.629 C 245.919 100.629,244.594 101.105,245.354 95.873 C 248.425 74.736,244.258 63.058,232.511 59.878 C 230.886 59.438,224.538 59.324,222.576 59.699 M272.583 59.708 C 263.022 61.516,257.551 69.629,256.211 83.986 C 255.852 87.834,256.061 110.194,256.488 113.595 C 258.477 129.432,264.554 136.433,276.308 136.429 C 288.091 136.425,294.226 129.815,294.397 116.941 C 294.452 112.793,294.940 113.111,288.512 113.111 L 283.469 113.111 283.033 113.618 C 282.651 114.062,282.582 114.419,282.470 116.520 C 282.146 122.607,280.324 125.673,277.038 125.661 C 273.424 125.646,271.546 123.177,270.512 117.078 C 270.135 114.853,270.057 82.214,270.422 79.090 C 271.170 72.672,272.840 69.988,276.253 69.714 C 280.351 69.385,282.518 73.587,282.533 81.895 C 282.535 82.779,282.627 83.105,283.002 83.540 L 283.469 84.083 288.110 84.083 C 293.971 84.083,293.763 84.203,294.250 80.545 C 295.550 70.774,292.356 63.625,285.442 60.833 C 282.221 59.532,276.269 59.011,272.583 59.708 M354.620 59.612 C 339.686 61.924,335.280 77.086,345.157 92.174 C 347.374 95.561,349.442 98.205,354.722 104.403 C 362.887 113.986,364.095 115.730,364.592 118.646 C 365.467 123.780,360.848 127.157,355.625 125.203 C 352.642 124.087,351.341 121.247,350.892 114.870 C 350.640 111.290,350.851 111.426,345.679 111.503 L 341.719 111.563 341.174 112.172 C 339.576 113.962,339.212 121.441,340.506 125.908 C 342.804 133.844,350.568 137.615,361.611 136.160 C 376.478 134.202,381.646 119.756,372.658 105.284 C 371.106 102.783,368.017 98.872,362.182 92.017 C 353.225 81.495,352.225 79.807,352.442 75.568 C 352.640 71.682,354.640 69.763,358.491 69.763 C 362.841 69.763,364.444 72.176,364.980 79.536 C 365.343 84.517,365.191 84.373,370.063 84.373 C 374.893 84.373,374.945 84.341,375.635 80.921 C 377.901 69.680,373.658 62.116,363.828 59.874 C 362.293 59.523,356.293 59.353,354.620 59.612 M180.411 60.399 C 179.218 60.744,179.302 57.789,179.197 103.241 C 179.104 143.149,179.084 145.089,178.744 146.105 C 177.801 148.930,176.218 150.267,173.369 150.647 C 171.719 150.867,171.553 151.236,171.553 154.693 C 171.553 158.648,171.699 158.864,174.843 159.566 C 184.138 161.641,190.657 157.089,192.596 147.170 L 193.012 145.041 193.076 103.413 C 193.145 58.719,193.197 60.934,192.073 60.465 C 191.290 60.137,181.507 60.082,180.411 60.399 M148.691 70.317 C 150.819 71.564,151.925 74.391,152.527 80.116 C 152.958 84.214,152.887 113.339,152.438 116.497 C 151.441 123.513,149.462 126.131,145.469 125.714 C 139.944 125.137,138.948 120.699,138.947 96.662 C 138.947 79.568,139.419 75.079,141.532 72.108 C 143.212 69.745,146.368 68.956,148.691 70.317 M228.394 69.869 C 230.065 70.333,231.654 72.124,232.411 74.397 C 233.729 78.359,234.056 89.523,232.888 90.691 L 232.432 91.147 226.531 91.147 L 220.631 91.147 220.098 90.688 C 218.976 89.723,219.410 78.841,220.731 74.801 C 222.066 70.722,224.899 68.898,228.394 69.869 " stroke="none" fill="#4d4545" fill-rule="evenodd"></path><path id="path1" d="M0.090 0.242 C 0.039 0.375,0.020 43.895,0.047 96.952 L 0.097 193.420 199.744 193.469 C 381.209 193.513,399.419 193.490,399.696 193.213 C 399.973 192.936,399.997 184.016,399.952 96.502 L 399.903 0.097 200.042 0.048 C 40.255 0.010,0.163 0.048,0.090 0.242 M189.210 32.012 C 193.378 33.121,195.421 36.869,194.718 42.119 C 193.475 51.411,180.654 52.349,178.521 43.303 C 176.666 35.433,181.778 30.033,189.210 32.012 M320.004 40.836 C 321.151 41.235,321.133 41.095,321.239 50.670 L 321.335 59.444 321.792 59.814 C 322.213 60.155,322.610 60.184,326.878 60.184 C 333.559 60.184,333.313 59.969,333.204 65.724 C 333.116 70.324,333.659 69.929,327.248 70.053 C 322.272 70.149,322.233 70.153,321.737 70.619 L 321.239 71.088 321.239 95.622 C 321.239 121.424,321.236 121.336,322.121 123.094 C 323.448 125.730,326.062 126.339,330.781 125.113 C 333.606 124.380,333.624 124.400,333.624 128.337 C 333.624 131.481,333.465 131.992,332.139 133.106 C 329.796 135.077,327.247 136.089,323.746 136.439 C 316.109 137.202,310.670 133.798,308.582 126.947 C 307.382 123.010,307.439 124.372,307.319 96.662 C 307.232 76.774,307.156 71.219,306.964 70.884 C 306.648 70.331,305.620 70.056,303.862 70.054 C 301.525 70.053,301.500 70.002,301.500 65.235 C 301.500 60.123,301.352 60.333,305.039 60.189 C 308.871 60.040,308.322 61.166,309.905 50.207 C 311.212 41.163,311.255 40.998,312.409 40.772 C 313.296 40.598,319.471 40.650,320.004 40.836 M53.217 42.654 C 67.925 45.047,74.117 54.255,74.117 73.730 C 74.117 95.371,65.980 106.296,49.250 107.115 C 46.599 107.245,45.800 107.426,45.539 107.952 C 45.451 108.128,45.336 114.224,45.283 121.497 L 45.186 134.722 44.643 135.189 L 44.100 135.656 38.257 135.653 C 31.800 135.650,31.603 135.617,31.216 134.489 C 30.908 133.595,30.859 44.601,31.165 43.499 C 31.553 42.102,31.114 42.154,41.703 42.243 C 49.440 42.309,51.559 42.384,53.217 42.654 M45.785 53.085 L 45.283 53.587 45.283 74.566 C 45.283 98.946,45.056 96.566,47.377 96.564 C 53.761 96.557,57.592 92.777,58.947 85.148 C 59.376 82.731,59.570 67.695,59.216 64.261 C 58.420 56.542,55.140 53.081,48.252 52.694 C 46.327 52.585,46.276 52.593,45.785 53.085 M110.782 59.993 C 115.756 61.563,118.241 66.236,118.238 74.015 C 118.237 77.492,117.198 82.662,116.299 83.668 L 115.755 84.277 111.755 84.277 L 107.756 84.277 107.319 83.769 C 106.902 83.284,106.877 83.061,106.761 78.834 C 106.633 74.170,106.382 72.479,105.641 71.279 C 104.279 69.075,101.346 69.227,99.191 71.612 C 97.702 73.260,97.834 70.309,97.723 104.403 C 97.668 121.219,97.603 134.998,97.578 135.022 C 96.392 136.155,84.553 135.939,84.107 134.776 C 84.041 134.604,83.986 118.016,83.986 97.915 L 83.986 61.367 84.453 60.824 L 84.920 60.281 88.489 60.217 C 93.846 60.122,94.005 60.202,94.533 63.267 C 95.087 66.481,95.644 66.828,97.146 64.895 C 100.802 60.189,105.755 58.408,110.782 59.993 M151.034 59.715 C 160.858 61.433,165.666 69.820,166.613 86.889 C 168.353 118.271,163.876 132.544,151.217 135.969 C 149.117 136.538,141.981 136.486,139.816 135.887 C 131.332 133.538,127.054 126.537,125.461 112.396 C 124.955 107.901,124.951 85.668,125.456 81.832 C 127.292 67.875,132.162 61.179,141.558 59.693 C 143.819 59.335,148.933 59.347,151.034 59.715 M232.511 59.878 C 244.258 63.058,248.425 74.736,245.354 95.873 C 244.594 101.105,245.919 100.629,232.124 100.629 C 218.279 100.629,219.629 100.194,219.495 104.693 C 219.077 118.703,220.914 124.646,225.959 125.598 C 230.608 126.475,233.427 123.431,233.979 116.940 C 234.327 112.848,234.077 113.014,239.865 113.014 C 245.729 113.014,245.652 112.966,245.603 116.590 C 245.410 130.860,237.116 137.963,222.640 136.256 C 212.948 135.113,207.577 127.686,205.970 113.208 C 205.457 108.587,205.455 85.664,205.968 81.761 C 207.681 68.712,213.103 61.509,222.576 59.699 C 224.538 59.324,230.886 59.438,232.511 59.878 M282.775 59.965 C 291.723 62.328,295.720 69.497,294.250 80.545 C 293.763 84.203,293.971 84.083,288.110 84.083 L 283.469 84.083 283.002 83.540 C 282.627 83.105,282.535 82.779,282.533 81.895 C 282.518 73.587,280.351 69.385,276.253 69.714 C 272.840 69.988,271.170 72.672,270.422 79.090 C 270.057 82.214,270.135 114.853,270.512 117.078 C 271.546 123.177,273.424 125.646,277.038 125.661 C 280.324 125.673,282.146 122.607,282.470 116.520 C 282.582 114.419,282.651 114.062,283.033 113.618 L 283.469 113.111 288.512 113.111 C 294.940 113.111,294.452 112.793,294.397 116.941 C 294.226 129.815,288.091 136.425,276.308 136.429 C 264.554 136.433,258.477 129.432,256.488 113.595 C 256.061 110.194,255.852 87.834,256.211 83.986 C 257.551 69.629,263.022 61.516,272.583 59.708 C 274.852 59.279,280.740 59.428,282.775 59.965 M363.828 59.874 C 373.658 62.116,377.901 69.680,375.635 80.921 C 374.945 84.341,374.893 84.373,370.063 84.373 C 365.191 84.373,365.343 84.517,364.980 79.536 C 364.444 72.176,362.841 69.763,358.491 69.763 C 354.640 69.763,352.640 71.682,352.442 75.568 C 352.225 79.807,353.225 81.495,362.182 92.017 C 368.017 98.872,371.106 102.783,372.658 105.284 C 381.646 119.756,376.478 134.202,361.611 136.160 C 350.568 137.615,342.804 133.844,340.506 125.908 C 339.212 121.441,339.576 113.962,341.174 112.172 L 341.719 111.563 345.679 111.503 C 350.851 111.426,350.640 111.290,350.892 114.870 C 351.341 121.247,352.642 124.087,355.625 125.203 C 360.848 127.157,365.467 123.780,364.592 118.646 C 364.095 115.730,362.887 113.986,354.722 104.403 C 349.442 98.205,347.374 95.561,345.157 92.174 C 335.280 77.086,339.686 61.924,354.620 59.612 C 356.293 59.353,362.293 59.523,363.828 59.874 M192.073 60.465 C 193.197 60.934,193.145 58.719,193.076 103.413 L 193.012 145.041 192.596 147.170 C 190.657 157.089,184.138 161.641,174.843 159.566 C 171.699 158.864,171.553 158.648,171.553 154.693 C 171.553 151.236,171.719 150.867,173.369 150.647 C 176.218 150.267,177.801 148.930,178.744 146.105 C 179.084 145.089,179.104 143.149,179.197 103.241 C 179.302 57.789,179.218 60.744,180.411 60.399 C 181.507 60.082,191.290 60.137,192.073 60.465 M144.293 69.938 C 139.782 71.617,138.947 75.792,138.947 96.662 C 138.947 115.789,139.436 120.503,141.741 123.643 C 144.039 126.774,148.862 126.396,150.704 122.940 C 152.591 119.399,152.782 117.140,152.782 98.307 C 152.782 77.769,152.462 74.620,150.058 71.469 C 148.909 69.962,146.177 69.237,144.293 69.938 M224.530 69.987 C 221.600 71.025,220.133 74.683,219.620 82.228 C 219.273 87.329,219.430 90.114,220.098 90.688 L 220.631 91.147 226.531 91.147 L 232.432 91.147 232.888 90.691 C 234.056 89.523,233.729 78.359,232.411 74.397 C 231.139 70.575,227.935 68.782,224.530 69.987 " stroke="none" fill="#292929" fill-rule="evenodd"></path></g></svg>
